<svg width="800" height="400" xmlns="http://www.w3.org/2000/svg">
  <!-- 背景 -->
  <rect width="100%" height="100%" fill="#ccccccbe" />

  <!-- A -->
  <rect id="slot-1" x="50" y="120" width="80" height="50" fill="#1a1a1a" />
  <text x="90" y="145" fill="white" font-size="20" text-anchor="middle" dominant-baseline="middle">1</text>

  <rect id="slot-2" x="50" y="180" width="80" height="50" fill="#1a1a1a"/>
  <text x="90" y="205" fill="white" font-size="20" text-anchor="middle" dominant-baseline="middle">2</text>

  <rect id="slot-3" x="50" y="240" width="80" height="50" fill="#1a1a1a"/>
  <text x="90" y="265" fill="white" font-size="20" text-anchor="middle" dominant-baseline="middle">3</text>

  <rect id="slot-4" x="50" y="300" width="80" height="50" fill="#1a1a1a"/>
  <text x="90" y="325" fill="white" font-size="20" text-anchor="middle" dominant-baseline="middle">4</text>

  <rect id="slot-5" x="240" y="50" width="80" height="50" fill="#1a1a1a"/>
  <text x="280" y="75" fill="white" font-size="20" text-anchor="middle" dominant-baseline="middle">5</text>

  <rect id="slot-6" x="180" y="120" width="80" height="50" fill="#1a1a1a"/>
  <text x="220" y="145" fill="white" font-size="20" text-anchor="middle" dominant-baseline="middle">6</text>

  <rect id="slot-7" x="180" y="250" width="80" height="50" fill="#1a1a1a"/>
  <text x="220" y="275" fill="white" font-size="20" text-anchor="middle" dominant-baseline="middle">7</text>

  <rect id="slot-8" x="360" y="170" width="50" height="80" fill="#1a1a1a " />
  <text x="385" y="210" fill="white" font-size="20" text-anchor="middle" dominant-baseline="middle">8</text>

  <rect id="slot-9" x="280" y="270" width="50" height="80" fill="#1a1a1a" />
  <text x="305" y="310" fill="white" font-size="20" text-anchor="middle" dominant-baseline="middle">9</text>

  <rect id="slot-10" x="360" y="270" width="50" height="80" fill="#1a1a1a" />
  <text x="385" y="310" fill="white" font-size="20" text-anchor="middle" dominant-baseline="middle">10</text>

  <!-- B -->
  <rect id="slot-11" x="450" y="50" width="50" height="80" fill="#1a1a1a"/>
  <text x="475" y="90" fill="white" font-size="20" text-anchor="middle" dominant-baseline="middle">11</text>

  <rect id="slot-12" x="450" y="180" width="50" height="80" fill="#1a1a1a" />
  <text x="475" y="220" fill="white" font-size="20" text-anchor="middle" dominant-baseline="middle">12</text>

  <rect id="slot-13" x="500" y="270" width="50" height="80" fill="#1a1a1a" />
  <text x="525" y="310" fill="white" font-size="20" text-anchor="middle" dominant-baseline="middle">13</text>

  <rect id="slot-14" x="660" y="50" width="80" height="50" fill="#1a1a1a"/>
  <text x="700" y="75" fill="white" font-size="20" text-anchor="middle" dominant-baseline="middle">14</text>

  <rect id="slot-15" x="660" y="110" width="80" height="50" fill="#1a1a1a" />
  <text x="700" y="135" fill="white" font-size="20" text-anchor="middle" dominant-baseline="middle">15</text>

  <rect id="slot-16" x="660" y="170" width="80" height="50" fill="#1a1a1a" />
  <text x="700" y="195" fill="white" font-size="20" text-anchor="middle" dominant-baseline="middle">16</text>

  <rect id="slot-17" x="660" y="230" width="80" height="50" fill="#1a1a1a" />
  <text x="700" y="255" fill="white" font-size="20" text-anchor="middle" dominant-baseline="middle">17</text>

  <rect id="slot-18" x="660" y="290" width="80" height="50" fill="#1a1a1a" />
  <text x="700" y="315" fill="white" font-size="20" text-anchor="middle" dominant-baseline="middle">18</text>

  <!-- 真ん中の仕切り -->
  <rect x="430" y="40" width="6" height="330" fill="grey"/>
  
  <!-- A -->
  <text x="280" y="200" fill="blue" font-size="30" font-weight="bold">A</text>
  
  <rect x="160" y="40" width="3" height="135" fill="grey"/>
  <rect x="160" y="40" width="610" height="3" fill="grey"/>
  <rect x="20" y="105" width="140" height="3" fill="grey"/>
  <rect x="20" y="105" width="3" height="265" fill="grey"/>
  <rect x="20" y="370" width="750" height="3" fill="grey"/>
  
  <!-- B -->
  <text x="560" y="200" fill="blue" font-size="30" font-weight="bold">B</text>

  <rect x="770" y="40" width="3" height="335" fill="grey"/>

  <rect x="340" y="40" width="80" height="4" fill="red"/>
  <rect x="470" y="40" width="80" height="4" fill="red"/>

</svg>
